<svg width="308" height="36" viewBox="0 0 308 36" fill="none" xmlns="http://www.w3.org/2000/svg">
<g opacity="0.8">
<path d="M37.964 9.036L36.512 5.34L35.048 9.036H37.964ZM40.748 12.564H39.356L38.444 10.272H34.556L33.632 12.564H32.252L35.9 3.612H37.208L40.748 12.564ZM46.8928 6.036L44.6128 12.516H43.4248L41.2288 6.036H42.5368L44.0488 10.752L45.6088 6.036H46.8928ZM49.3503 12.564H48.0663V5.844H49.3503V12.564ZM49.3503 4.692H48.0663V3.192H49.3503V4.692ZM54.4835 7.32C53.9555 7.096 53.4555 6.984 52.9835 6.984C52.3195 6.984 51.9875 7.244 51.9875 7.764C51.9875 7.996 52.2395 8.236 52.7435 8.484C53.4715 8.844 53.9395 9.108 54.1475 9.276C54.6435 9.684 54.8915 10.188 54.8915 10.788C54.8915 11.46 54.6235 11.968 54.0875 12.312C53.6635 12.576 53.1555 12.708 52.5635 12.708C51.8435 12.708 51.2195 12.6 50.6915 12.384L50.8115 11.148C51.3955 11.436 51.9675 11.58 52.5275 11.58C52.8475 11.58 53.1115 11.496 53.3195 11.328C53.5115 11.176 53.6075 10.976 53.6075 10.728C53.6075 10.408 53.3635 10.112 52.8755 9.84C52.4195 9.592 52.0795 9.404 51.8555 9.276C51.6315 9.148 51.5155 9.08 51.5075 9.072C51.0195 8.704 50.7755 8.252 50.7755 7.716C50.7755 7.06 51.0195 6.572 51.5075 6.252C51.8995 5.996 52.3755 5.868 52.9355 5.868C53.5595 5.868 54.1195 5.976 54.6155 6.192L54.4835 7.32ZM58.9574 6.996C58.4134 6.996 57.9814 7.212 57.6614 7.644C57.3574 8.068 57.2054 8.616 57.2054 9.288C57.2054 9.96 57.3574 10.508 57.6614 10.932C57.9814 11.364 58.4134 11.58 58.9574 11.58C59.5014 11.58 59.9294 11.364 60.2414 10.932C60.5534 10.516 60.7094 9.968 60.7094 9.288C60.7094 8.616 60.5534 8.068 60.2414 7.644C59.9294 7.212 59.5014 6.996 58.9574 6.996ZM58.9574 5.868C59.9494 5.868 60.7214 6.224 61.2734 6.936C61.7694 7.568 62.0174 8.352 62.0174 9.288C62.0174 10.224 61.7694 11.008 61.2734 11.64C60.7214 12.352 59.9494 12.708 58.9574 12.708C57.9574 12.708 57.1814 12.352 56.6294 11.64C56.1414 11.024 55.8974 10.24 55.8974 9.288C55.8974 8.336 56.1414 7.552 56.6294 6.936C57.1814 6.224 57.9574 5.868 58.9574 5.868ZM65.1788 11.46H63.6908V10.02H65.1788V11.46ZM65.1788 6.144H63.6908V4.716H65.1788V6.144Z" fill="#343A40"/>
<path d="M37.256 22.992C36.856 22.792 36.32 22.692 35.648 22.692C34.608 22.692 34.088 23.076 34.088 23.844C34.088 24.212 34.412 24.6 35.06 25.008C35.596 25.352 36.016 25.624 36.32 25.824C36.624 26.024 36.808 26.156 36.872 26.22C37.52 26.788 37.844 27.444 37.844 28.188C37.844 29.02 37.524 29.672 36.884 30.144C36.34 30.544 35.688 30.744 34.928 30.744C34.168 30.744 33.472 30.604 32.84 30.324L32.996 28.992C33.596 29.328 34.256 29.496 34.976 29.496C36.04 29.496 36.572 29.028 36.572 28.092C36.572 27.724 36.248 27.324 35.6 26.892C35.016 26.5 34.572 26.2 34.268 25.992C33.972 25.784 33.812 25.672 33.788 25.656C33.148 25.104 32.828 24.5 32.828 23.844C32.828 23.1 33.116 22.504 33.692 22.056C34.212 21.656 34.868 21.456 35.66 21.456C36.316 21.456 36.92 21.56 37.472 21.768L37.256 22.992ZM42.2231 24.996C41.6791 24.996 41.2471 25.212 40.9271 25.644C40.6231 26.068 40.4711 26.616 40.4711 27.288C40.4711 27.96 40.6231 28.508 40.9271 28.932C41.2471 29.364 41.6791 29.58 42.2231 29.58C42.7671 29.58 43.1951 29.364 43.5071 28.932C43.8191 28.516 43.9751 27.968 43.9751 27.288C43.9751 26.616 43.8191 26.068 43.5071 25.644C43.1951 25.212 42.7671 24.996 42.2231 24.996ZM42.2231 23.868C43.2151 23.868 43.9871 24.224 44.5391 24.936C45.0351 25.568 45.2831 26.352 45.2831 27.288C45.2831 28.224 45.0351 29.008 44.5391 29.64C43.9871 30.352 43.2151 30.708 42.2231 30.708C41.2231 30.708 40.4471 30.352 39.8951 29.64C39.4071 29.024 39.1631 28.24 39.1631 27.288C39.1631 26.336 39.4071 25.552 39.8951 24.936C40.4471 24.224 41.2231 23.868 42.2231 23.868ZM48.0484 30.516H46.7404V20.964H48.0484V30.516ZM52.5004 24.996C51.9564 24.996 51.5244 25.212 51.2044 25.644C50.9004 26.068 50.7484 26.616 50.7484 27.288C50.7484 27.96 50.9004 28.508 51.2044 28.932C51.5244 29.364 51.9564 29.58 52.5004 29.58C53.0444 29.58 53.4724 29.364 53.7844 28.932C54.0964 28.516 54.2524 27.968 54.2524 27.288C54.2524 26.616 54.0964 26.068 53.7844 25.644C53.4724 25.212 53.0444 24.996 52.5004 24.996ZM52.5004 23.868C53.4924 23.868 54.2644 24.224 54.8164 24.936C55.3124 25.568 55.5604 26.352 55.5604 27.288C55.5604 28.224 55.3124 29.008 54.8164 29.64C54.2644 30.352 53.4924 30.708 52.5004 30.708C51.5004 30.708 50.7244 30.352 50.1724 29.64C49.6844 29.024 49.4404 28.24 49.4404 27.288C49.4404 26.336 49.6844 25.552 50.1724 24.936C50.7244 24.224 51.5004 23.868 52.5004 23.868ZM63.753 25.32C63.225 25.096 62.725 24.984 62.253 24.984C61.589 24.984 61.257 25.244 61.257 25.764C61.257 25.996 61.509 26.236 62.013 26.484C62.741 26.844 63.209 27.108 63.417 27.276C63.913 27.684 64.161 28.188 64.161 28.788C64.161 29.46 63.893 29.968 63.357 30.312C62.933 30.576 62.425 30.708 61.833 30.708C61.113 30.708 60.489 30.6 59.961 30.384L60.081 29.148C60.665 29.436 61.237 29.58 61.797 29.58C62.117 29.58 62.381 29.496 62.589 29.328C62.781 29.176 62.877 28.976 62.877 28.728C62.877 28.408 62.633 28.112 62.145 27.84C61.689 27.592 61.349 27.404 61.125 27.276C60.901 27.148 60.785 27.08 60.777 27.072C60.289 26.704 60.045 26.252 60.045 25.716C60.045 25.06 60.289 24.572 60.777 24.252C61.169 23.996 61.645 23.868 62.205 23.868C62.829 23.868 63.389 23.976 63.885 24.192L63.753 25.32ZM70.543 27.744H66.499C66.523 28.32 66.679 28.768 66.967 29.088C67.263 29.432 67.671 29.604 68.191 29.604C68.911 29.604 69.547 29.448 70.099 29.136V30.348C69.459 30.588 68.811 30.708 68.155 30.708C67.123 30.708 66.355 30.38 65.851 29.724C65.411 29.14 65.191 28.324 65.191 27.276C65.191 26.268 65.435 25.448 65.923 24.816C66.411 24.184 67.067 23.868 67.891 23.868C68.811 23.868 69.499 24.196 69.955 24.852C70.347 25.412 70.543 26.152 70.543 27.072V27.744ZM69.235 26.604C69.235 26.156 69.119 25.78 68.887 25.476C68.647 25.156 68.331 24.996 67.939 24.996C67.539 24.996 67.199 25.16 66.919 25.488C66.639 25.816 66.499 26.188 66.499 26.604H69.235ZM76.7013 32.28H75.4413V24H76.7013L76.6653 24.732C76.6973 24.692 76.7373 24.644 76.7853 24.588C76.8333 24.524 76.8893 24.46 76.9533 24.396C77.3053 24.044 77.7813 23.868 78.3813 23.868C79.2613 23.868 79.9373 24.164 80.4093 24.756C80.8253 25.3 81.0333 26.068 81.0333 27.06C81.0333 28.068 80.8133 28.868 80.3733 29.46C79.9093 30.092 79.2333 30.408 78.3453 30.408C77.6333 30.408 77.0853 30.148 76.7013 29.628V32.28ZM78.2373 25.032C77.7413 25.032 77.3573 25.24 77.0853 25.656C76.8293 26.032 76.7013 26.524 76.7013 27.132C76.7013 27.724 76.8253 28.216 77.0733 28.608C77.3533 29.032 77.7333 29.244 78.2133 29.244C79.2533 29.244 79.7733 28.528 79.7733 27.096C79.7733 25.72 79.2613 25.032 78.2373 25.032ZM87.7227 27.744H83.6787C83.7027 28.32 83.8587 28.768 84.1467 29.088C84.4427 29.432 84.8507 29.604 85.3707 29.604C86.0907 29.604 86.7267 29.448 87.2787 29.136V30.348C86.6387 30.588 85.9907 30.708 85.3347 30.708C84.3027 30.708 83.5347 30.38 83.0307 29.724C82.5907 29.14 82.3707 28.324 82.3707 27.276C82.3707 26.268 82.6147 25.448 83.1027 24.816C83.5907 24.184 84.2467 23.868 85.0707 23.868C85.9907 23.868 86.6787 24.196 87.1347 24.852C87.5267 25.412 87.7227 26.152 87.7227 27.072V27.744ZM86.4147 26.604C86.4147 26.156 86.2987 25.78 86.0667 25.476C85.8267 25.156 85.5107 24.996 85.1187 24.996C84.7187 24.996 84.3787 25.16 84.0987 25.488C83.8187 25.816 83.6787 26.188 83.6787 26.604H86.4147ZM92.4017 25.2C92.2977 25.184 92.2017 25.172 92.1137 25.164C92.0257 25.148 91.9377 25.14 91.8497 25.14C91.3857 25.14 91.0417 25.368 90.8177 25.824C90.6097 26.224 90.5057 26.72 90.5057 27.312V30.564H89.2217V25.62C89.2217 25.316 89.2137 25.032 89.1977 24.768C89.1897 24.496 89.1777 24.244 89.1617 24.012H90.4577V24.816C90.8257 24.184 91.2937 23.868 91.8617 23.868C92.0377 23.868 92.2177 23.892 92.4017 23.94V25.2ZM102.449 30.516H101.201V26.292C101.201 25.444 100.825 25.02 100.073 25.02C99.7051 25.02 99.4011 25.172 99.1611 25.476C98.8731 25.828 98.7291 26.324 98.7291 26.964V30.516H97.4691V26.292C97.4691 25.444 97.0931 25.02 96.3411 25.02C95.9651 25.02 95.6651 25.168 95.4411 25.464C95.1611 25.816 95.0211 26.316 95.0211 26.964V30.516H93.7491V25.68C93.7491 25.312 93.7451 24.992 93.7371 24.72C93.7291 24.448 93.7171 24.22 93.7011 24.036H94.9491V24.624C95.3091 24.136 95.8731 23.892 96.6411 23.892C96.9691 23.892 97.2971 23.988 97.6251 24.18C97.9611 24.388 98.1971 24.648 98.3331 24.96C98.7811 24.248 99.4491 23.892 100.337 23.892C101.017 23.892 101.545 24.096 101.921 24.504C102.273 24.88 102.449 25.396 102.449 26.052V30.516ZM105.8 30.564H104.516V23.844H105.8V30.564ZM105.8 22.692H104.516V21.192H105.8V22.692ZM110.801 30.516C110.497 30.644 110.153 30.708 109.769 30.708C109.009 30.708 108.517 30.504 108.293 30.096C108.125 29.824 108.041 29.3 108.041 28.524V25.128H107.009V23.94H108.041V22.512L109.337 22.092V23.94H110.609V25.128H109.337V28.86C109.337 29.324 109.549 29.556 109.973 29.556C110.253 29.556 110.497 29.504 110.705 29.4L110.801 30.516ZM116.996 27.744H112.952C112.976 28.32 113.132 28.768 113.42 29.088C113.716 29.432 114.124 29.604 114.644 29.604C115.364 29.604 116 29.448 116.552 29.136V30.348C115.912 30.588 115.264 30.708 114.608 30.708C113.576 30.708 112.808 30.38 112.304 29.724C111.864 29.14 111.644 28.324 111.644 27.276C111.644 26.268 111.888 25.448 112.376 24.816C112.864 24.184 113.52 23.868 114.344 23.868C115.264 23.868 115.952 24.196 116.408 24.852C116.8 25.412 116.996 26.152 116.996 27.072V27.744ZM115.688 26.604C115.688 26.156 115.572 25.78 115.34 25.476C115.1 25.156 114.784 24.996 114.392 24.996C113.992 24.996 113.652 25.16 113.372 25.488C113.092 25.816 112.952 26.188 112.952 26.604H115.688ZM123.13 30.516H121.822V20.964H123.13V30.516ZM129.898 27.744H125.854C125.878 28.32 126.034 28.768 126.322 29.088C126.618 29.432 127.026 29.604 127.546 29.604C128.266 29.604 128.902 29.448 129.454 29.136V30.348C128.814 30.588 128.166 30.708 127.51 30.708C126.478 30.708 125.71 30.38 125.206 29.724C124.766 29.14 124.546 28.324 124.546 27.276C124.546 26.268 124.79 25.448 125.278 24.816C125.766 24.184 126.422 23.868 127.246 23.868C128.166 23.868 128.854 24.196 129.31 24.852C129.702 25.412 129.898 26.152 129.898 27.072V27.744ZM128.59 26.604C128.59 26.156 128.474 25.78 128.242 25.476C128.002 25.156 127.686 24.996 127.294 24.996C126.894 24.996 126.554 25.16 126.274 25.488C125.994 25.816 125.854 26.188 125.854 26.604H128.59ZM134.602 30.516C134.298 30.644 133.954 30.708 133.57 30.708C132.81 30.708 132.318 30.504 132.094 30.096C131.926 29.824 131.842 29.3 131.842 28.524V25.128H130.81V23.94H131.842V22.512L133.138 22.092V23.94H134.41V25.128H133.138V28.86C133.138 29.324 133.35 29.556 133.774 29.556C134.054 29.556 134.298 29.504 134.506 29.4L134.602 30.516ZM138.937 25.2C138.833 25.184 138.737 25.172 138.649 25.164C138.561 25.148 138.473 25.14 138.385 25.14C137.921 25.14 137.577 25.368 137.353 25.824C137.145 26.224 137.041 26.72 137.041 27.312V30.564H135.757V25.62C135.757 25.316 135.749 25.032 135.733 24.768C135.725 24.496 135.713 24.244 135.697 24.012H136.993V24.816C137.361 24.184 137.829 23.868 138.397 23.868C138.573 23.868 138.753 23.892 138.937 23.94V25.2ZM143.644 30.576V29.94C143.252 30.452 142.688 30.708 141.952 30.708C141.152 30.708 140.56 30.484 140.176 30.036C139.904 29.708 139.768 29.308 139.768 28.836C139.768 27.204 140.968 26.388 143.368 26.388H143.548V26.172C143.548 25.388 143.184 24.996 142.456 24.996C141.8 24.996 141.152 25.168 140.512 25.512V24.336C141.12 24.024 141.792 23.868 142.528 23.868C143.296 23.868 143.856 24.048 144.208 24.408C144.584 24.8 144.772 25.408 144.772 26.232V29.028C144.772 29.764 144.796 30.28 144.844 30.576H143.644ZM143.548 27.504H143.296C142.672 27.504 142.192 27.56 141.856 27.672C141.32 27.848 141.052 28.196 141.052 28.716C141.052 29.292 141.384 29.58 142.048 29.58C143.048 29.58 143.548 28.972 143.548 27.756V27.504ZM149.991 25.32C149.463 25.096 148.963 24.984 148.491 24.984C147.827 24.984 147.495 25.244 147.495 25.764C147.495 25.996 147.747 26.236 148.251 26.484C148.979 26.844 149.447 27.108 149.655 27.276C150.151 27.684 150.399 28.188 150.399 28.788C150.399 29.46 150.131 29.968 149.595 30.312C149.171 30.576 148.663 30.708 148.071 30.708C147.351 30.708 146.727 30.6 146.199 30.384L146.319 29.148C146.903 29.436 147.475 29.58 148.035 29.58C148.355 29.58 148.619 29.496 148.827 29.328C149.019 29.176 149.115 28.976 149.115 28.728C149.115 28.408 148.871 28.112 148.383 27.84C147.927 27.592 147.587 27.404 147.363 27.276C147.139 27.148 147.023 27.08 147.015 27.072C146.527 26.704 146.283 26.252 146.283 25.716C146.283 25.06 146.527 24.572 147.015 24.252C147.407 23.996 147.883 23.868 148.443 23.868C149.067 23.868 149.627 23.976 150.123 24.192L149.991 25.32ZM160.145 27.744H156.101C156.125 28.32 156.281 28.768 156.569 29.088C156.865 29.432 157.273 29.604 157.793 29.604C158.513 29.604 159.149 29.448 159.701 29.136V30.348C159.061 30.588 158.413 30.708 157.757 30.708C156.725 30.708 155.957 30.38 155.453 29.724C155.013 29.14 154.793 28.324 154.793 27.276C154.793 26.268 155.037 25.448 155.525 24.816C156.013 24.184 156.669 23.868 157.493 23.868C158.413 23.868 159.101 24.196 159.557 24.852C159.949 25.412 160.145 26.152 160.145 27.072V27.744ZM158.837 26.604C158.837 26.156 158.721 25.78 158.489 25.476C158.249 25.156 157.933 24.996 157.541 24.996C157.141 24.996 156.801 25.16 156.521 25.488C156.241 25.816 156.101 26.188 156.101 26.604H158.837ZM166.924 30.564H165.676V26.544C165.676 25.512 165.3 24.996 164.548 24.996C164.036 24.996 163.648 25.2 163.384 25.608C163.168 25.96 163.06 26.412 163.06 26.964V30.564H161.812V25.68C161.812 25.368 161.804 25.076 161.788 24.804C161.78 24.524 161.768 24.26 161.752 24.012H162.952V24.672C163.344 24.136 163.924 23.868 164.692 23.868C166.18 23.868 166.924 24.696 166.924 26.352V30.564ZM181.152 30.516H179.904V26.292C179.904 25.444 179.528 25.02 178.776 25.02C178.408 25.02 178.104 25.172 177.864 25.476C177.576 25.828 177.432 26.324 177.432 26.964V30.516H176.172V26.292C176.172 25.444 175.796 25.02 175.044 25.02C174.668 25.02 174.368 25.168 174.144 25.464C173.864 25.816 173.724 26.316 173.724 26.964V30.516H172.452V25.68C172.452 25.312 172.448 24.992 172.44 24.72C172.432 24.448 172.42 24.22 172.404 24.036H173.652V24.624C174.012 24.136 174.576 23.892 175.344 23.892C175.672 23.892 176 23.988 176.328 24.18C176.664 24.388 176.9 24.648 177.036 24.96C177.484 24.248 178.152 23.892 179.04 23.892C179.72 23.892 180.248 24.096 180.624 24.504C180.976 24.88 181.152 25.396 181.152 26.052V30.516ZM184.503 30.564H183.219V23.844H184.503V30.564ZM184.503 22.692H183.219V21.192H184.503V22.692ZM191.58 30.564H190.332V26.544C190.332 25.512 189.956 24.996 189.204 24.996C188.692 24.996 188.304 25.2 188.04 25.608C187.824 25.96 187.716 26.412 187.716 26.964V30.564H186.468V25.68C186.468 25.368 186.46 25.076 186.444 24.804C186.436 24.524 186.424 24.26 186.408 24.012H187.608V24.672C188 24.136 188.58 23.868 189.348 23.868C190.836 23.868 191.58 24.696 191.58 26.352V30.564ZM199.013 23.568V30H198.149L197.993 29.148H197.945C197.809 29.372 197.633 29.556 197.417 29.7C197.201 29.844 196.965 29.948 196.709 30.012C196.453 30.084 196.185 30.12 195.905 30.12C195.393 30.12 194.961 30.04 194.609 29.88C194.265 29.712 194.005 29.456 193.829 29.112C193.653 28.768 193.565 28.324 193.565 27.78V23.568H194.633V27.708C194.633 28.22 194.749 28.604 194.981 28.86C195.213 29.116 195.573 29.244 196.061 29.244C196.541 29.244 196.917 29.156 197.189 28.98C197.469 28.796 197.665 28.532 197.777 28.188C197.897 27.836 197.957 27.412 197.957 26.916V23.568H199.013ZM198.101 20.928C198.029 21.04 197.925 21.176 197.789 21.336C197.653 21.496 197.501 21.664 197.333 21.84C197.173 22.008 197.009 22.172 196.841 22.332C196.681 22.484 196.529 22.616 196.385 22.728H195.689V22.584C195.809 22.432 195.937 22.252 196.073 22.044C196.217 21.836 196.357 21.624 196.493 21.408C196.629 21.184 196.741 20.984 196.829 20.808H198.101V20.928ZM204.331 25.32C203.803 25.096 203.303 24.984 202.831 24.984C202.167 24.984 201.835 25.244 201.835 25.764C201.835 25.996 202.087 26.236 202.591 26.484C203.319 26.844 203.787 27.108 203.995 27.276C204.491 27.684 204.739 28.188 204.739 28.788C204.739 29.46 204.471 29.968 203.935 30.312C203.511 30.576 203.003 30.708 202.411 30.708C201.691 30.708 201.067 30.6 200.539 30.384L200.659 29.148C201.243 29.436 201.815 29.58 202.375 29.58C202.695 29.58 202.959 29.496 203.167 29.328C203.359 29.176 203.455 28.976 203.455 28.728C203.455 28.408 203.211 28.112 202.723 27.84C202.267 27.592 201.927 27.404 201.703 27.276C201.479 27.148 201.363 27.08 201.355 27.072C200.867 26.704 200.623 26.252 200.623 25.716C200.623 25.06 200.867 24.572 201.355 24.252C201.747 23.996 202.223 23.868 202.783 23.868C203.407 23.868 203.967 23.976 204.463 24.192L204.331 25.32ZM210.581 30.456C210.133 30.6 209.561 30.672 208.865 30.672C207.881 30.672 207.105 30.328 206.537 29.64C206.025 29.024 205.769 28.236 205.769 27.276C205.769 26.292 206.065 25.48 206.657 24.84C207.257 24.208 208.013 23.892 208.925 23.892C209.533 23.892 210.085 23.976 210.581 24.144L210.485 25.308C210.013 25.116 209.521 25.02 209.009 25.02C208.385 25.02 207.897 25.228 207.545 25.644C207.201 26.052 207.029 26.596 207.029 27.276C207.029 27.916 207.205 28.456 207.557 28.896C207.901 29.328 208.357 29.544 208.925 29.544C209.445 29.544 209.965 29.448 210.485 29.256L210.581 30.456ZM216.022 30.576V29.916C215.59 30.444 215.022 30.708 214.318 30.708C213.534 30.708 212.938 30.472 212.53 30C212.17 29.56 211.99 28.968 211.99 28.224V24.024H213.274V27.984C213.274 29.048 213.662 29.58 214.438 29.58C214.958 29.58 215.354 29.384 215.626 28.992C215.842 28.672 215.95 28.236 215.95 27.684V24.024H217.222V28.92C217.222 29.512 217.246 30.064 217.294 30.576H216.022ZM220.443 30.516H219.135V20.964H220.443V30.516ZM225.699 30.576V29.94C225.307 30.452 224.743 30.708 224.007 30.708C223.207 30.708 222.615 30.484 222.231 30.036C221.959 29.708 221.823 29.308 221.823 28.836C221.823 27.204 223.023 26.388 225.423 26.388H225.603V26.172C225.603 25.388 225.239 24.996 224.511 24.996C223.855 24.996 223.207 25.168 222.567 25.512V24.336C223.175 24.024 223.847 23.868 224.583 23.868C225.351 23.868 225.911 24.048 226.263 24.408C226.639 24.8 226.827 25.408 226.827 26.232V29.028C226.827 29.764 226.851 30.28 226.899 30.576H225.699ZM225.603 27.504H225.351C224.727 27.504 224.247 27.56 223.911 27.672C223.375 27.848 223.107 28.196 223.107 28.716C223.107 29.292 223.439 29.58 224.103 29.58C225.103 29.58 225.603 28.972 225.603 27.756V27.504ZM232.046 25.32C231.518 25.096 231.018 24.984 230.546 24.984C229.882 24.984 229.55 25.244 229.55 25.764C229.55 25.996 229.802 26.236 230.306 26.484C231.034 26.844 231.502 27.108 231.71 27.276C232.206 27.684 232.454 28.188 232.454 28.788C232.454 29.46 232.186 29.968 231.65 30.312C231.226 30.576 230.718 30.708 230.126 30.708C229.406 30.708 228.782 30.6 228.254 30.384L228.374 29.148C228.958 29.436 229.53 29.58 230.09 29.58C230.41 29.58 230.674 29.496 230.882 29.328C231.074 29.176 231.17 28.976 231.17 28.728C231.17 28.408 230.926 28.112 230.438 27.84C229.982 27.592 229.642 27.404 229.418 27.276C229.194 27.148 229.078 27.08 229.07 27.072C228.582 26.704 228.338 26.252 228.338 25.716C228.338 25.06 228.582 24.572 229.07 24.252C229.462 23.996 229.938 23.868 230.498 23.868C231.122 23.868 231.682 23.976 232.178 24.192L232.046 25.32ZM242.007 24.024L239.631 30.66C239.431 31.22 239.223 31.608 239.007 31.824C238.743 32.12 238.391 32.272 237.951 32.28H237.831C237.527 32.28 237.215 32.24 236.895 32.16L237.027 30.96C237.307 31.064 237.535 31.116 237.711 31.116C237.727 31.116 237.759 31.112 237.807 31.104C237.863 31.104 237.935 31.1 238.023 31.092C238.207 31.076 238.375 30.808 238.527 30.288L238.623 29.976L236.451 24.024H237.771L239.223 28.404L240.735 24.024H242.007ZM249.776 25.32C249.248 25.096 248.748 24.984 248.276 24.984C247.612 24.984 247.28 25.244 247.28 25.764C247.28 25.996 247.532 26.236 248.036 26.484C248.764 26.844 249.232 27.108 249.44 27.276C249.936 27.684 250.184 28.188 250.184 28.788C250.184 29.46 249.916 29.968 249.38 30.312C248.956 30.576 248.448 30.708 247.856 30.708C247.136 30.708 246.512 30.6 245.984 30.384L246.104 29.148C246.688 29.436 247.26 29.58 247.82 29.58C248.14 29.58 248.404 29.496 248.612 29.328C248.804 29.176 248.9 28.976 248.9 28.728C248.9 28.408 248.656 28.112 248.168 27.84C247.712 27.592 247.372 27.404 247.148 27.276C246.924 27.148 246.808 27.08 246.8 27.072C246.312 26.704 246.068 26.252 246.068 25.716C246.068 25.06 246.312 24.572 246.8 24.252C247.192 23.996 247.668 23.868 248.228 23.868C248.852 23.868 249.412 23.976 249.908 24.192L249.776 25.32ZM252.846 30.564H251.562V23.844H252.846V30.564ZM252.846 22.692H251.562V21.192H252.846V22.692ZM259.924 30.564H258.676V26.544C258.676 25.512 258.3 24.996 257.548 24.996C257.036 24.996 256.648 25.2 256.384 25.608C256.168 25.96 256.06 26.412 256.06 26.964V30.564H254.812V25.68C254.812 25.368 254.804 25.076 254.788 24.804C254.78 24.524 254.768 24.26 254.752 24.012H255.952V24.672C256.344 24.136 256.924 23.868 257.692 23.868C259.18 23.868 259.924 24.696 259.924 26.352V30.564ZM268.812 30.576V29.94C268.42 30.452 267.856 30.708 267.12 30.708C266.32 30.708 265.728 30.484 265.344 30.036C265.072 29.708 264.936 29.308 264.936 28.836C264.936 27.204 266.136 26.388 268.536 26.388H268.716V26.172C268.716 25.388 268.352 24.996 267.624 24.996C266.968 24.996 266.32 25.168 265.68 25.512V24.336C266.288 24.024 266.96 23.868 267.696 23.868C268.464 23.868 269.024 24.048 269.376 24.408C269.752 24.8 269.94 25.408 269.94 26.232V29.028C269.94 29.764 269.964 30.28 270.012 30.576H268.812ZM268.716 27.504H268.464C267.84 27.504 267.36 27.56 267.024 27.672C266.488 27.848 266.22 28.196 266.22 28.716C266.22 29.292 266.552 29.58 267.216 29.58C268.216 29.58 268.716 28.972 268.716 27.756V27.504ZM276.323 30.456C275.875 30.6 275.303 30.672 274.607 30.672C273.623 30.672 272.847 30.328 272.279 29.64C271.767 29.024 271.511 28.236 271.511 27.276C271.511 26.292 271.807 25.48 272.399 24.84C272.999 24.208 273.755 23.892 274.667 23.892C275.275 23.892 275.827 23.976 276.323 24.144L276.227 25.308C275.755 25.116 275.263 25.02 274.751 25.02C274.127 25.02 273.639 25.228 273.287 25.644C272.943 26.052 272.771 26.596 272.771 27.276C272.771 27.916 272.947 28.456 273.299 28.896C273.643 29.328 274.099 29.544 274.667 29.544C275.187 29.544 275.707 29.448 276.227 29.256L276.323 30.456ZM282.676 27.744H278.632C278.656 28.32 278.812 28.768 279.1 29.088C279.396 29.432 279.804 29.604 280.324 29.604C281.044 29.604 281.68 29.448 282.232 29.136V30.348C281.592 30.588 280.944 30.708 280.288 30.708C279.256 30.708 278.488 30.38 277.984 29.724C277.544 29.14 277.324 28.324 277.324 27.276C277.324 26.268 277.568 25.448 278.056 24.816C278.544 24.184 279.2 23.868 280.024 23.868C280.944 23.868 281.632 24.196 282.088 24.852C282.48 25.412 282.676 26.152 282.676 27.072V27.744ZM281.368 26.604C281.368 26.156 281.252 25.78 281.02 25.476C280.78 25.156 280.464 24.996 280.072 24.996C279.672 24.996 279.332 25.16 279.052 25.488C278.772 25.816 278.632 26.188 278.632 26.604H281.368ZM289.455 30.564H288.207V26.544C288.207 25.512 287.831 24.996 287.079 24.996C286.567 24.996 286.179 25.2 285.915 25.608C285.699 25.96 285.591 26.412 285.591 26.964V30.564H284.343V25.68C284.343 25.368 284.335 25.076 284.319 24.804C284.311 24.524 284.299 24.26 284.283 24.012H285.483V24.672C285.875 24.136 286.455 23.868 287.223 23.868C288.711 23.868 289.455 24.696 289.455 26.352V30.564ZM294.656 30.516C294.352 30.644 294.008 30.708 293.624 30.708C292.864 30.708 292.372 30.504 292.148 30.096C291.98 29.824 291.896 29.3 291.896 28.524V25.128H290.864V23.94H291.896V22.512L293.192 22.092V23.94H294.464V25.128H293.192V28.86C293.192 29.324 293.404 29.556 293.828 29.556C294.108 29.556 294.352 29.504 294.56 29.4L294.656 30.516ZM298.536 24.996C297.992 24.996 297.56 25.212 297.24 25.644C296.936 26.068 296.784 26.616 296.784 27.288C296.784 27.96 296.936 28.508 297.24 28.932C297.56 29.364 297.992 29.58 298.536 29.58C299.08 29.58 299.508 29.364 299.82 28.932C300.132 28.516 300.288 27.968 300.288 27.288C300.288 26.616 300.132 26.068 299.82 25.644C299.508 25.212 299.08 24.996 298.536 24.996ZM298.536 23.868C299.528 23.868 300.3 24.224 300.852 24.936C301.348 25.568 301.596 26.352 301.596 27.288C301.596 28.224 301.348 29.008 300.852 29.64C300.3 30.352 299.528 30.708 298.536 30.708C297.536 30.708 296.76 30.352 296.208 29.64C295.72 29.024 295.476 28.24 295.476 27.288C295.476 26.336 295.72 25.552 296.208 24.936C296.76 24.224 297.536 23.868 298.536 23.868ZM306.425 25.32C305.897 25.096 305.397 24.984 304.925 24.984C304.261 24.984 303.929 25.244 303.929 25.764C303.929 25.996 304.181 26.236 304.685 26.484C305.413 26.844 305.881 27.108 306.089 27.276C306.585 27.684 306.833 28.188 306.833 28.788C306.833 29.46 306.565 29.968 306.029 30.312C305.605 30.576 305.097 30.708 304.505 30.708C303.785 30.708 303.161 30.6 302.633 30.384L302.753 29.148C303.337 29.436 303.909 29.58 304.469 29.58C304.789 29.58 305.053 29.496 305.261 29.328C305.453 29.176 305.549 28.976 305.549 28.728C305.549 28.408 305.305 28.112 304.817 27.84C304.361 27.592 304.021 27.404 303.797 27.276C303.573 27.148 303.457 27.08 303.449 27.072C302.961 26.704 302.717 26.252 302.717 25.716C302.717 25.06 302.961 24.572 303.449 24.252C303.841 23.996 304.317 23.868 304.877 23.868C305.501 23.868 306.061 23.976 306.557 24.192L306.425 25.32Z" fill="#495057"/>
</g>
<path d="M26 18C26 21.4478 24.6304 24.7544 22.1924 27.1924C19.7544 29.6304 16.4478 31 13 31C9.55219 31 6.24558 29.6304 3.80761 27.1924C1.36964 24.7544 0 21.4478 0 18C0 14.5522 1.36964 11.2456 3.80761 8.80761C6.24558 6.36964 9.55219 5 13 5C16.4478 5 19.7544 6.36964 22.1924 8.80761C24.6304 11.2456 26 14.5522 26 18ZM13 11.5C12.7946 11.5001 12.5915 11.5433 12.4038 11.6266C12.2161 11.71 12.048 11.8318 11.9102 11.9841C11.7724 12.1364 11.6681 12.3159 11.6039 12.511C11.5397 12.7061 11.5171 12.9125 11.5375 13.1169L12.1062 18.8158C12.1254 19.0396 12.2278 19.2482 12.3933 19.4002C12.5588 19.5521 12.7753 19.6365 13 19.6365C13.2247 19.6365 13.4412 19.5521 13.6067 19.4002C13.7722 19.2482 13.8746 19.0396 13.8938 18.8158L14.4625 13.1169C14.4829 12.9125 14.4603 12.7061 14.3961 12.511C14.3319 12.3159 14.2276 12.1364 14.0898 11.9841C13.952 11.8318 13.7839 11.71 13.5962 11.6266C13.4085 11.5433 13.2054 11.5001 13 11.5ZM13.0033 21.25C12.5723 21.25 12.1589 21.4212 11.8542 21.726C11.5495 22.0307 11.3783 22.444 11.3783 22.875C11.3783 23.306 11.5495 23.7193 11.8542 24.024C12.1589 24.3288 12.5723 24.5 13.0033 24.5C13.4342 24.5 13.8476 24.3288 14.1523 24.024C14.457 23.7193 14.6283 23.306 14.6283 22.875C14.6283 22.444 14.457 22.0307 14.1523 21.726C13.8476 21.4212 13.4342 21.25 13.0033 21.25Z" fill="#F9837B"/>
</svg>
